HIERARCHY
ROOT Hips
{
	OFFSET 0.000000 121.760803 0.000000
	CHANNELS 6 Xposition Yposition Zposition Xrotation Yrotation Zrotation 
	JOINT Spine
	{
		OFFSET 0.072000 7.257294 -0.789700
		CHANNELS 3 Xrotation Yrotation Zrotation
		JOINT Spine1
		{
			OFFSET 0.000000 12.508769 -0.658067
			CHANNELS 3 Xrotation Yrotation Zrotation
			JOINT Spine1_split
			{
				OFFSET 0.000000 12.508769 -0.658067
				CHANNELS 3 Xrotation Yrotation Zrotation
				JOINT Spine2
				{
					OFFSET 0.000000 12.508769 -0.658067
					CHANNELS 3 Xrotation Yrotation Zrotation
					JOINT Neck
					{
						OFFSET 0.000000 14.033295 7.520400
						CHANNELS 3 Xrotation Yrotation Zrotation
						JOINT Head
						{
							OFFSET 0.000000 8.198502 5.703100
							CHANNELS 3 Xrotation Yrotation Zrotation
							JOINT HeadTop_End
							{
								OFFSET 0.000000 17.760803 13.332701
								CHANNELS 3 Xrotation Yrotation Zrotation
								End Site
								{
									OFFSET 0.000000 0.000000 0.000000
								}
							}
						}
					}
					JOINT LeftShoulder
					{
						OFFSET 6.292450 5.785301 -0.669000
						CHANNELS 3 Xrotation Yrotation Zrotation
						JOINT LeftShoulder_split
						{
							OFFSET 6.292450 5.785301 -0.669000
							CHANNELS 3 Xrotation Yrotation Zrotation
							JOINT LeftArm
							{
								OFFSET 13.907140 -6.093903 1.965100
								CHANNELS 3 Xrotation Yrotation Zrotation
								JOINT LeftForeArm
								{
									OFFSET 34.140198 0.000000 0.000000
									CHANNELS 3 Xrotation Yrotation Zrotation
									JOINT LeftHand
									{
										OFFSET 40.960209 0.000000 0.000000
										CHANNELS 3 Xrotation Yrotation Zrotation
										JOINT LeftHandThumb1
										{
											OFFSET 10.006996 -7.170425 9.573125
											CHANNELS 3 Xrotation Yrotation Zrotation
											JOINT LeftHandThumb2
											{
												OFFSET 1.835007 -1.059448 1.059443
												CHANNELS 3 Xrotation Yrotation Zrotation
												JOINT LeftHandThumb3
												{
													OFFSET 2.112267 -1.219513 1.219518
													CHANNELS 3 Xrotation Yrotation Zrotation
													JOINT LeftHandThumb4
													{
														OFFSET 4.843811 -2.796570 2.796576
														CHANNELS 3 Xrotation Yrotation Zrotation
														End Site
														{
															OFFSET 0.000000 0.000000 0.000000
														}
													}
												}
											}
										}
										JOINT LeftHandIndex1
										{
											OFFSET 18.389847 -0.922348 4.596882
											CHANNELS 3 Xrotation Yrotation Zrotation
											JOINT LeftHandIndex2
											{
												OFFSET 4.711273 0.000000 0.000000
												CHANNELS 3 Xrotation Yrotation Zrotation
												JOINT LeftHandIndex3
												{
													OFFSET 2.886131 0.000000 0.000000
													CHANNELS 3 Xrotation Yrotation Zrotation
													JOINT LeftHandIndex4
													{
														OFFSET 6.145912 0.000000 0.000000
														CHANNELS 3 Xrotation Yrotation Zrotation
														End Site
														{
															OFFSET 0.000000 0.000000 0.000000
														}
													}
												}
											}
										}
										JOINT LeftHandMiddle1
										{
											OFFSET 18.013008 0.000000 0.000000
											CHANNELS 3 Xrotation Yrotation Zrotation
											JOINT LeftHandMiddle2
											{
												OFFSET 4.946693 0.000000 0.000000
												CHANNELS 3 Xrotation Yrotation Zrotation
												JOINT LeftHandMiddle3
												{
													OFFSET 3.342232 0.000000 0.000000
													CHANNELS 3 Xrotation Yrotation Zrotation
													JOINT LeftHandMiddle4
													{
														OFFSET 4.461754 0.000000 0.000000
														CHANNELS 3 Xrotation Yrotation Zrotation
														End Site
														{
															OFFSET 0.000000 0.000000 0.000000
														}
													}
												}
											}
										}
										JOINT LeftHandRing1
										{
											OFFSET 15.849892 -0.102921 -4.126150
											CHANNELS 3 Xrotation Yrotation Zrotation
											JOINT LeftHandRing2
											{
												OFFSET 3.527054 0.000000 0.000000
												CHANNELS 3 Xrotation Yrotation Zrotation
												JOINT LeftHandRing3
												{
													OFFSET 2.961098 0.000000 0.000000
													CHANNELS 3 Xrotation Yrotation Zrotation
													JOINT LeftHandRing4
													{
														OFFSET 4.927200 0.000000 0.000000
														CHANNELS 3 Xrotation Yrotation Zrotation
														End Site
														{
															OFFSET 0.000000 0.000000 0.000000
														}
													}
												}
											}
										}
										JOINT LeftHandPinky1
										{
											OFFSET 12.791824 -0.832031 -6.799156
											CHANNELS 3 Xrotation Yrotation Zrotation
											JOINT LeftHandPinky2
											{
												OFFSET 3.327133 0.000000 0.000000
												CHANNELS 3 Xrotation Yrotation Zrotation
												JOINT LeftHandPinky3
												{
													OFFSET 3.014900 0.000000 0.000000
													CHANNELS 3 Xrotation Yrotation Zrotation
													JOINT LeftHandPinky4
													{
														OFFSET 5.847786 0.000000 0.000000
														CHANNELS 3 Xrotation Yrotation Zrotation
														End Site
														{
															OFFSET 0.000000 0.000000 0.000000
														}
													}
												}
											}
										}
									}
								}
							}
						}
					}
					JOINT RightShoulder
					{
						OFFSET -6.292450 5.785301 -0.669000
						CHANNELS 3 Xrotation Yrotation Zrotation
						JOINT RightShoulder_split
						{
							OFFSET -6.292450 5.785301 -0.669000
							CHANNELS 3 Xrotation Yrotation Zrotation
							JOINT RightArm
							{
								OFFSET -13.907140 -6.093903 1.965100
								CHANNELS 3 Xrotation Yrotation Zrotation
								JOINT RightForeArm
								{
									OFFSET -34.140198 0.000000 0.000000
									CHANNELS 3 Xrotation Yrotation Zrotation
									JOINT RightHand
									{
										OFFSET -40.960209 0.000000 0.000000
										CHANNELS 3 Xrotation Yrotation Zrotation
										JOINT RightHandThumb1
										{
											OFFSET -10.007050 -7.170456 9.573117
											CHANNELS 3 Xrotation Yrotation Zrotation
											JOINT RightHandThumb2
											{
												OFFSET -1.835007 -1.059448 1.059443
												CHANNELS 3 Xrotation Yrotation Zrotation
												JOINT RightHandThumb3
												{
													OFFSET -2.112267 -1.219513 1.219518
													CHANNELS 3 Xrotation Yrotation Zrotation
													JOINT RightHandThumb4
													{
														OFFSET -4.843834 -2.796585 2.796590
														CHANNELS 3 Xrotation Yrotation Zrotation
														End Site
														{
															OFFSET 0.000000 0.000000 0.000000
														}
													}
												}
											}
										}
										JOINT RightHandIndex1
										{
											OFFSET -18.389870 -0.922424 4.596786
											CHANNELS 3 Xrotation Yrotation Zrotation
											JOINT RightHandIndex2
											{
												OFFSET -4.711273 0.000000 0.000000
												CHANNELS 3 Xrotation Yrotation Zrotation
												JOINT RightHandIndex3
												{
													OFFSET -2.886131 0.000000 0.000000
													CHANNELS 3 Xrotation Yrotation Zrotation
													JOINT RightHandIndex4
													{
														OFFSET -6.145920 0.000000 0.000000
														CHANNELS 3 Xrotation Yrotation Zrotation
														End Site
														{
															OFFSET 0.000000 0.000000 0.000000
														}
													}
												}
											}
										}
										JOINT RightHandMiddle1
										{
											OFFSET -18.013008 0.000000 0.000000
											CHANNELS 3 Xrotation Yrotation Zrotation
											JOINT RightHandMiddle2
											{
												OFFSET -4.946693 0.000000 0.000000
												CHANNELS 3 Xrotation Yrotation Zrotation
												JOINT RightHandMiddle3
												{
													OFFSET -3.342232 0.000000 0.000000
													CHANNELS 3 Xrotation Yrotation Zrotation
													JOINT RightHandMiddle4
													{
														OFFSET -4.461754 0.000000 0.000000
														CHANNELS 3 Xrotation Yrotation Zrotation
														End Site
														{
															OFFSET 0.000000 0.000000 0.000000
														}
													}
												}
											}
										}
										JOINT RightHandRing1
										{
											OFFSET -15.849876 -0.102936 -4.126237
											CHANNELS 3 Xrotation Yrotation Zrotation
											JOINT RightHandRing2
											{
												OFFSET -3.527054 0.000000 0.000000
												CHANNELS 3 Xrotation Yrotation Zrotation
												JOINT RightHandRing3
												{
													OFFSET -2.961098 0.000000 0.000000
													CHANNELS 3 Xrotation Yrotation Zrotation
													JOINT RightHandRing4
													{
														OFFSET -4.927200 0.000000 0.000000
														CHANNELS 3 Xrotation Yrotation Zrotation
														End Site
														{
															OFFSET 0.000000 0.000000 0.000000
														}
													}
												}
											}
										}
										JOINT RightHandPinky1
										{
											OFFSET -12.791786 -0.832077 -6.799222
											CHANNELS 3 Xrotation Yrotation Zrotation
											JOINT RightHandPinky2
											{
												OFFSET -3.327133 0.000000 0.000000
												CHANNELS 3 Xrotation Yrotation Zrotation
												JOINT RightHandPinky3
												{
													OFFSET -3.014900 0.000000 0.000000
													CHANNELS 3 Xrotation Yrotation Zrotation
													JOINT RightHandPinky4
													{
														OFFSET -5.847786 0.000000 0.000000
														CHANNELS 3 Xrotation Yrotation Zrotation
														End Site
														{
															OFFSET 0.000000 0.000000 0.000000
														}
													}
												}
											}
										}
									}
								}
							}
						}
					}
				}
			}
		}
	}
	JOINT LeftUpLeg
	{
		OFFSET 13.026900 -6.336304 -1.092800
		CHANNELS 3 Xrotation Yrotation Zrotation
		JOINT LeftLeg
		{
			OFFSET 0.524474 -46.096886 9.782700
			CHANNELS 3 Xrotation Yrotation Zrotation
			JOINT LeftFoot
			{
				OFFSET -0.524474 -53.427422 -12.948200
				CHANNELS 3 Xrotation Yrotation Zrotation
				JOINT LeftToeBase
				{
					OFFSET 0.192200 -14.009700 16.364100
					CHANNELS 3 Xrotation Yrotation Zrotation
					JOINT LeftToe_End
					{
						OFFSET -1.784700 -0.561700 9.474800
						CHANNELS 3 Xrotation Yrotation Zrotation
						End Site
						{
							OFFSET 0.000000 0.000000 0.000000
						}
					}
				}
			}
		}
	}
	JOINT RightUpLeg
	{
		OFFSET -12.883000 -6.336304 -1.092800
		CHANNELS 3 Xrotation Yrotation Zrotation
		JOINT RightLeg
		{
			OFFSET -0.524587 -46.096825 9.782800
			CHANNELS 3 Xrotation Yrotation Zrotation
			JOINT RightFoot
			{
				OFFSET 0.524587 -53.427383 -12.948300
				CHANNELS 3 Xrotation Yrotation Zrotation
				JOINT RightToeBase
				{
					OFFSET -0.192200 -14.009700 16.364100
					CHANNELS 3 Xrotation Yrotation Zrotation
					JOINT RightToe_End
					{
						OFFSET 1.784700 -0.561700 9.474800
						CHANNELS 3 Xrotation Yrotation Zrotation
						End Site
						{
							OFFSET 0.000000 0.000000 0.000000
						}
					}
				}
			}
		}
	}
}
MOTION
Frames: 4
Frame Time: 0.016667
-20.562012 94.279526 -3.485912 -6.201910 -41.886501 2.618749 9.680740 6.492590 -1.967472 2.766067 -0.356993 -2.318342 0.000000 0.000000 0.000000 2.765119 -0.254319 -2.356225 2.319648 13.599724 3.258862 11.523870 19.676551 -2.051257 0.000002 0.000000 -0.000000 2.217709 0.696467 -13.443604 0.000000 0.000000 0.000000 -68.029736 -0.403281 -40.075729 0.000136 -108.716770 0.000146 0.135983 -4.421001 -12.826696 -6.141219 -11.690801 -6.761701 9.914123 42.595512 3.409858 -0.422818 8.108104 27.509108 0.000001 0.000000 -0.000002 0.255309 3.378220 -45.814327 5.654101 5.847755 -88.067469 2.162142 4.544815 -50.866372 -0.000004 -0.000000 0.000001 -0.461474 3.841592 -39.722676 6.450747 5.820356 -95.892871 2.182899 4.561566 -51.127736 -0.000001 -0.000001 0.000002 0.469714 4.966827 -39.799444 8.181039 5.368622 -113.502998 3.200492 5.218125 -63.022968 0.000001 -0.000002 -0.000000 -3.762431 9.063702 -45.253821 5.342538 5.829008 -85.005311 8.716839 5.103339 -119.369167 -0.000000 0.000001 -0.000000 2.599452 11.718734 -12.158733 0.000000 0.000000 0.000000 -64.262893 18.736201 84.603149 -0.001492 87.058261 0.001485 -17.320444 37.211922 21.718847 -7.341098 13.749659 7.412336 9.855738 -44.489103 -3.903292 -0.115776 -14.513080 -28.973878 0.000001 0.000006 -0.000003 -0.124371 -2.384789 45.108851 4.500590 -4.654529 88.071130 1.723224 -3.618375 50.920119 -0.000001 0.000000 0.000002 -0.761619 -2.932907 39.031055 5.133881 -4.632753 95.881642 1.739743 -3.631701 51.181367 0.000000 -0.000000 0.000006 0.154757 -4.068821 39.122658 6.509732 -4.273604 113.462850 2.549585 -4.153925 63.067330 -0.000000 0.000000 -0.000002 -4.198877 -8.025517 44.637769 4.252917 -4.639619 85.014818 6.935970 -4.062629 119.322298 -0.000002 -0.000000 -0.000001 -26.400083 7.318280 22.846838 48.317899 -9.619382 9.417911 -14.485351 -11.376384 -29.016857 -8.511659 -0.013560 0.919758 0.000000 -0.000000 -0.000000 -32.247519 -5.244742 -36.767284 56.298951 -8.901703 -8.333946 -12.863205 -5.049316 24.729590 0.006881 0.000004 0.010387 0.000000 -0.000001 -0.000000 
-21.428705 94.799927 -3.832881 -6.539229 -42.061927 2.526626 9.667072 6.354070 -1.872478 2.786419 -0.645104 -2.360986 0.000000 0.000000 0.000000 2.784643 -0.532876 -2.409948 2.357354 13.650869 3.291964 11.963593 19.954406 -2.414292 0.000002 -0.000000 -0.000000 2.119627 1.326095 -13.029246 0.000000 0.000000 0.000000 -67.198802 -0.218708 -41.239183 0.000090 -108.751283 0.000081 0.302969 -4.918420 -12.653558 -6.141218 -11.690801 -6.761705 9.914126 42.595512 3.409862 -0.422820 8.108099 27.509106 0.000003 -0.000001 -0.000001 0.255309 3.378219 -45.814327 5.654101 5.847751 -88.067469 2.162142 4.544816 -50.866372 -0.000000 -0.000000 0.000004 -0.461475 3.841592 -39.722676 6.450748 5.820360 -95.892871 2.182897 4.561567 -51.127743 0.000001 -0.000001 0.000001 0.469713 4.966827 -39.799441 8.181040 5.368617 -113.502998 3.200492 5.218124 -63.022968 -0.000001 0.000004 -0.000000 -3.762431 9.063699 -45.253821 5.342536 5.829008 -85.005317 8.716842 5.103338 -119.369167 0.000000 0.000000 0.000000 2.565273 11.280108 -12.138849 0.000000 0.000000 0.000000 -64.922102 18.397997 84.997927 0.017498 87.809014 -0.017486 -17.630072 37.319720 21.737828 -7.341098 13.749659 7.412335 9.855741 -44.489103 -3.903302 -0.115774 -14.513076 -28.973874 0.000001 0.000002 -0.000002 -0.124373 -2.384786 45.108847 4.500588 -4.654530 88.071137 1.723224 -3.618376 50.920119 0.000000 0.000000 -0.000001 -0.761619 -2.932904 39.031044 5.133880 -4.632753 95.881642 1.739744 -3.631701 51.181370 -0.000000 -0.000001 0.000000 0.154755 -4.068818 39.122658 6.509730 -4.273604 113.462850 2.549585 -4.153925 63.067330 -0.000000 0.000001 -0.000001 -4.198879 -8.025514 44.637769 4.252916 -4.639618 85.014825 6.935970 -4.062630 119.322298 0.000000 0.000000 -0.000001 -26.259885 7.086729 22.695397 48.343143 -9.849900 9.742641 -11.596810 -11.051270 -28.486805 -9.053239 -0.018733 0.926890 -0.000000 0.000003 -0.000000 -31.851354 -5.839555 -36.713981 56.066048 -8.864924 -8.070814 -13.380921 -4.734748 24.131120 0.004999 0.000007 0.008253 0.000000 0.000001 0.000000 
-22.258831 95.390869 -4.133936 -6.711723 -42.228823 2.510599 9.641632 6.237608 -1.795094 2.771245 -0.888553 -2.411325 0.000000 0.000000 0.000000 2.769533 -0.770338 -2.469700 2.323235 13.688415 3.351655 12.263284 20.206073 -2.684246 0.000002 0.000000 0.000001 2.040253 1.891033 -12.727016 0.000000 0.000000 0.000000 -66.041898 -0.227470 -42.512702 -0.000050 -108.614659 -0.000047 0.616243 -5.150687 -12.859875 -6.141218 -11.690804 -6.761708 9.914125 42.595512 3.409862 -0.422817 8.108104 27.509108 0.000002 -0.000001 -0.000000 0.255311 3.378222 -45.814337 5.654100 5.847753 -88.067469 2.162144 4.544815 -50.866372 0.000003 -0.000000 0.000002 -0.461472 3.841595 -39.722686 6.450749 5.820353 -95.892871 2.182895 4.561566 -51.127740 0.000000 -0.000000 0.000001 0.469715 4.966829 -39.799454 8.181041 5.368620 -113.502998 3.200495 5.218123 -63.022968 -0.000000 0.000000 -0.000002 -3.762428 9.063702 -45.253825 5.342535 5.829009 -85.005311 8.716844 5.103338 -119.369167 -0.000001 -0.000000 0.000001 2.522554 10.738737 -12.141175 0.000000 0.000000 0.000000 -65.351257 18.105115 85.470030 0.028213 88.672583 -0.028100 -17.925732 37.372090 21.709971 -7.341099 13.749660 7.412339 9.855738 -44.489110 -3.903296 -0.115772 -14.513081 -28.973867 0.000002 -0.000001 0.000001 -0.124372 -2.384788 45.108851 4.500590 -4.654531 88.071137 1.723224 -3.618375 50.920119 -0.000001 0.000000 0.000000 -0.761619 -2.932905 39.031048 5.133880 -4.632754 95.881642 1.739743 -3.631702 51.181377 -0.000000 0.000000 -0.000002 0.154756 -4.068820 39.122658 6.509731 -4.273603 113.462850 2.549583 -4.153924 63.067337 0.000000 0.000001 -0.000001 -4.198878 -8.025517 44.637772 4.252918 -4.639619 85.014818 6.935969 -4.062631 119.322298 -0.000001 0.000000 0.000001 -26.382415 6.766988 22.448636 48.688901 -9.882006 9.903948 -8.841944 -10.600827 -27.121494 -9.275071 0.008836 -0.374024 0.000000 0.000002 -0.000000 -31.430198 -6.434672 -36.532971 55.656541 -8.826298 -7.846161 -13.796088 -4.539484 23.553525 0.001073 0.000002 0.003549 0.000000 -0.000001 0.000000 
-23.036125 96.018303 -4.372461 -6.734182 -42.402743 2.551352 9.603302 6.152065 -1.724608 2.720345 -1.070415 -2.460026 0.000000 0.000000 0.000000 2.719145 -0.949806 -2.525624 2.229915 13.710765 3.433354 12.372780 20.430353 -2.883342 0.000000 0.000000 -0.000001 1.997485 2.324992 -12.601865 0.000000 0.000000 0.000000 -64.622517 -0.436634 -43.747758 0.000100 -108.319410 0.000097 1.063103 -5.154258 -13.436484 -6.141219 -11.690801 -6.761704 9.914125 42.595512 3.409858 -0.422818 8.108099 27.509106 -0.000001 0.000003 -0.000000 0.255308 3.378222 -45.814331 5.654100 5.847756 -88.067469 2.162142 4.544816 -50.866372 0.000000 -0.000001 0.000001 -0.461474 3.841593 -39.722676 6.450750 5.820356 -95.892871 2.182897 4.561567 -51.127736 -0.000000 -0.000001 0.000002 0.469713 4.966827 -39.799447 8.181040 5.368619 -113.502998 3.200494 5.218124 -63.022968 -0.000000 -0.000000 -0.000000 -3.762433 9.063704 -45.253818 5.342538 5.829008 -85.005311 8.716842 5.103340 -119.369167 -0.000001 0.000001 0.000000 2.474451 10.139567 -12.169915 0.000000 0.000000 0.000000 -65.449311 17.878893 85.928376 0.188820 89.657168 -0.189090 -18.193425 37.393448 21.742324 -7.341099 13.749659 7.412342 9.855739 -44.489103 -3.903290 -0.115773 -14.513078 -28.973874 0.000000 -0.000000 0.000002 -0.124372 -2.384786 45.108854 4.500590 -4.654530 88.071137 1.723224 -3.618375 50.920116 0.000000 0.000000 -0.000004 -0.761619 -2.932905 39.031055 5.133880 -4.632755 95.881635 1.739742 -3.631702 51.181370 -0.000001 0.000001 -0.000000 0.154756 -4.068820 39.122661 6.509731 -4.273603 113.462850 2.549583 -4.153924 63.067337 -0.000000 -0.000000 0.000000 -4.198878 -8.025517 44.637772 4.252918 -4.639619 85.014818 6.935971 -4.062632 119.322298 -0.000000 -0.000000 -0.000000 -26.766487 6.306276 22.248011 49.299909 -9.768843 9.894957 -6.174169 -10.214704 -25.544718 -8.857763 0.036518 -1.544227 0.000000 -0.000000 -0.000000 -30.992793 -6.998034 -36.222071 55.107824 -8.785624 -7.669169 -14.113026 -4.460699 23.013416 -0.003282 -0.000014 0.000001 -0.000000 0.000001 0.000000 
